<svg xmlns="http://www.w3.org/2000/svg" width="61.532" height="58.632" viewBox="0 0 61.532 58.632">
    <defs>
        <style>
            .prefix__cls-1{fill:#fff;stroke:#fff}
        </style>
    </defs>
    <g id="prefix__doctor_1_" data-name="doctor(1)" transform="translate(.5 -10.998)">
        <g id="prefix__Group_4174" data-name="Group 4174" transform="translate(0 11.508)">
            <g id="prefix__Group_4173" data-name="Group 4173">
                <path id="prefix__Path_6952" d="M60.451 43.8a7.061 7.061 0 0 0-5.98-5.98v-1.838c0-5.06-3.846-9.179-8.574-9.179-4.592 0-8.436 3.995-8.574 8.9h.059l-.059.01V55.6c0 6.355-4.751 11.516-10.592 11.516S16.139 61.945 16.139 55.6v-1.725c1.463 0 3.026-1.06 3.026-4.035V47.3c6.474-1.655 11.1-7.214 11.1-13.517v-2.1h-2.021L28.2 18.555a5.049 5.049 0 0 0-4.15-4.938 3.01 3.01 0 1 0-.069 2.057 3.026 3.026 0 0 1 2.2 2.887l.045 13.122h-2.017v2.132a8.021 8.021 0 0 1-5.809 7.527 9.172 9.172 0 0 1-5.548 0 8.017 8.017 0 0 1-5.794-7.526v-2.133H4.035V18.57a3.026 3.026 0 0 1 2.239-2.909 3.04 3.04 0 1 0-.063-2.049 5.044 5.044 0 0 0-4.194 4.958v13.113H0v2.1C0 40.091 4.625 45.652 11.1 47.3v2.54c0 2.975 1.564 4.035 3.026 4.035V55.6c0 7.465 5.656 13.533 12.609 13.533S39.34 63.054 39.34 55.6V35.767c.1-3.828 3.044-6.943 6.557-6.943 3.615 0 6.557 3.212 6.557 7.162v1.831a7.061 7.061 0 1 0 8 5.98zM21.183 15.544a1.009 1.009 0 1 1 1.009-1.009 1.009 1.009 0 0 1-1.009 1.009zm-12.1-2.017a1.009 1.009 0 1 1-1.013 1.008 1.009 1.009 0 0 1 1.008-1.009zM2.017 33.781V33.7h3.027v.115a10.023 10.023 0 0 0 7.2 9.445 11.225 11.225 0 0 0 6.777 0 10.025 10.025 0 0 0 7.206-9.445V33.7h2.017v.081c0 5.611-4.325 10.549-10.289 11.743a14.389 14.389 0 0 1-4.256.209 13.176 13.176 0 0 1-1.393-.211C6.343 44.331 2.017 39.393 2.017 33.781zm12.1 18.076c-.908 0-1.009-1.412-1.009-2.017V47.7c.081.01.163.014.245.022.1.011.2.019.3.028.477.042.958.071 1.443.072h.05c.484 0 .964-.029 1.438-.072.1-.009.208-.017.312-.028.08-.009.162-.012.242-.022v2.14c0 .605-.1 2.017-1.009 2.017zm39.34-2.017a5.044 5.044 0 1 1 5.049-5.04 5.044 5.044 0 0 1-5.044 5.04z" class="prefix__cls-1" data-name="Path 6952" transform="translate(0 -11.508)"/>
            </g>
        </g>
        <g id="prefix__Group_4176" data-name="Group 4176" transform="translate(50.436 41.77)">
            <g id="prefix__Group_4175" data-name="Group 4175">
                <path id="prefix__Path_6953" d="M403.026 251.515a3.026 3.026 0 1 0 3.026 3.026 3.026 3.026 0 0 0-3.026-3.026zm0 4.035a1.009 1.009 0 1 1 1.009-1.009 1.009 1.009 0 0 1-1.009 1.009z" class="prefix__cls-1" data-name="Path 6953" transform="translate(-400 -251.515)"/>
            </g>
        </g>
    </g>
</svg>
