<svg xmlns="http://www.w3.org/2000/svg" id="prefix__surface1" width="57.258" height="57.257" viewBox="0 0 57.258 57.257">
    <path id="prefix__Path_6934" d="M55.58 4.133h-7.347q.04-1.221.041-2.455A1.678 1.678 0 0 0 46.6 0H10.661a1.678 1.678 0 0 0-1.677 1.677q0 1.234.042 2.455H1.677A1.677 1.677 0 0 0 0 5.81c0 7.516 1.964 14.608 5.531 19.968 3.526 5.3 8.222 8.339 13.3 8.635a17.224 17.224 0 0 0 3.632 3.05v7.456h-2.818a6.176 6.176 0 0 0-6.17 6.17V53.9h-.119a1.677 1.677 0 1 0 0 3.355H43.9a1.677 1.677 0 1 0 0-3.355h-.119v-2.812a6.176 6.176 0 0 0-6.17-6.17H34.8v-7.455a17.213 17.213 0 0 0 3.633-3.05c5.073-.3 9.77-3.335 13.3-8.635 3.567-5.361 5.531-12.452 5.531-19.968a1.677 1.677 0 0 0-1.684-1.677zM8.324 23.92A32.329 32.329 0 0 1 3.39 7.487h5.823a56.055 56.055 0 0 0 5.211 20.35q.671 1.342 1.4 2.536a16.178 16.178 0 0 1-7.5-6.453zm32.1 27.169V53.9h-23.6v-2.812a2.818 2.818 0 0 1 2.815-2.815h17.974a2.818 2.818 0 0 1 2.814 2.815zm-8.984-6.17h-5.626v-6a10.914 10.914 0 0 0 5.629 0zm1.039-9.989a1.632 1.632 0 0 0-.218.11 7.833 7.833 0 0 1-7.27 0 1.669 1.669 0 0 0-.22-.112 13.5 13.5 0 0 1-3.788-3.128 1.7 1.7 0 0 0-.214-.25 26.443 26.443 0 0 1-3.345-5.216c-3.083-6.165-4.863-14.272-5.066-22.982H44.9c-.2 8.711-1.984 16.818-5.066 22.982a26.463 26.463 0 0 1-3.345 5.216 1.654 1.654 0 0 0-.214.25 13.507 13.507 0 0 1-3.793 3.13zm16.454-11.01a16.178 16.178 0 0 1-7.5 6.454q.728-1.194 1.4-2.536a56.064 56.064 0 0 0 5.211-20.35h5.822a32.33 32.33 0 0 1-4.933 16.432zm0 0" data-name="Path 6934" style="fill:#fff"/>
</svg>
