<svg xmlns="http://www.w3.org/2000/svg" width="44.029" height="56.276" viewBox="0 0 44.029 56.276">
    <defs>
        <style>
            .prefix__cls-1{fill:#fff;stroke:#fff}
        </style>
    </defs>
    <g id="prefix__shield" transform="translate(.445 .513)">
        <path id="prefix__Path_7332" d="M42.536 11.188L21.768.122a1.032 1.032 0 0 0-.983.006L.592 11.194a1.034 1.034 0 0 0-.537.907v14.455a29.931 29.931 0 0 0 17.94 27.394l2.8 1.221a1.033 1.033 0 0 0 .823 0l3.158-1.364A29.872 29.872 0 0 0 43.084 26.27V12.1a1.034 1.034 0 0 0-.548-.913zm-1.52 15.081a27.809 27.809 0 0 1-17.047 25.637h-.007l-2.75 1.194-2.39-1.043a27.861 27.861 0 0 1-16.7-25.5V12.713l19.167-10.5L41.016 12.72zm0 0" class="prefix__cls-1" data-name="Path 7332"/>
        <path id="prefix__Path_7333" d="M81.662 150.354a1.034 1.034 0 0 0-1.573 1.343l5.462 6.4a1.034 1.034 0 0 0 1.438.131l12.72-10.349a1.034 1.034 0 0 0-1.305-1.6l-11.936 9.71zm0 0" class="prefix__cls-1" data-name="Path 7333" transform="translate(-68.002 -124.469)"/>
    </g>
</svg>
